<svg width="22" height="22" viewBox="0 0 22 22" fill="none" xmlns="http://www.w3.org/2000/svg">
<g clip-path="url(#clip0_8_30)">
<path d="M18.7998 23C18.7998 18.6922 15.3078 15.2002 11 15.2002C6.69218 15.2002 3.2002 18.6922 3.2002 23C3.2002 27.3078 6.69218 30.7998 11 30.7998V32C6.02944 32 2 27.9706 2 23C2 18.0294 6.02944 14 11 14C15.9706 14 20 18.0294 20 23C20 27.9706 15.9706 32 11 32V30.7998C15.3078 30.7998 18.7998 27.3078 18.7998 23Z" fill="black"/>
<path d="M13.7998 7C13.7998 5.4536 12.5464 4.2002 11 4.2002C9.4536 4.2002 8.2002 5.4536 8.2002 7C8.2002 8.5464 9.4536 9.7998 11 9.7998V11C8.79086 11 7 9.20914 7 7C7 4.79086 8.79086 3 11 3C13.2091 3 15 4.79086 15 7C15 9.20914 13.2091 11 11 11V9.7998C12.5464 9.7998 13.7998 8.5464 13.7998 7Z" fill="black"/>
</g>
<defs>
<clipPath id="clip0_8_30">
<rect width="22" height="22" fill="white"/>
</clipPath>
</defs>
</svg>
